<svg width="250" height="250" viewBox="0 0 250 250" fill="none" xmlns="http://www.w3.org/2000/svg">
<g clip-path="url(#clip0_1_2)">
<mask id="mask0_1_2" style="mask-type:alpha" maskUnits="userSpaceOnUse" x="2" y="6" width="243" height="241">
<path d="M62.84 188.56C55.672 188.56 49.016 187.792 42.872 186.256C36.728 184.891 31.1813 182.928 26.232 180.368C21.2827 177.637 16.8453 174.309 12.92 170.384C9.16533 166.288 5.83733 161.68 2.936 156.56L33.4 125.072C34.936 127.291 36.472 129.339 38.008 131.216C39.7147 133.093 41.4213 134.715 43.128 136.08C44.8347 137.275 46.6267 138.299 48.504 139.152C50.552 139.835 52.6 140.176 54.648 140.176C57.3787 140.176 59.768 139.579 61.816 138.384C63.864 137.019 65.4 135.227 66.424 133.008C67.6187 130.619 68.216 127.803 68.216 124.56V53.904H35.192V6.79999H149.112V53.904H121.464V131.472C121.464 140.688 119.928 148.795 116.856 155.792C113.784 162.789 109.603 168.763 104.312 173.712C99.0213 178.661 92.792 182.416 85.624 184.976C78.6267 187.365 71.032 188.56 62.84 188.56Z" fill="black"/>
<path d="M157.84 246.56C150.672 246.56 144.016 245.792 137.872 244.256C131.728 242.891 126.181 240.928 121.232 238.368C116.283 235.637 111.845 232.309 107.92 228.384C104.165 224.288 100.837 219.68 97.936 214.56L128.4 183.072C129.936 185.291 131.472 187.339 133.008 189.216C134.715 191.093 136.421 192.715 138.128 194.08C139.835 195.275 141.627 196.299 143.504 197.152C145.552 197.835 147.6 198.176 149.648 198.176C152.379 198.176 154.768 197.579 156.816 196.384C158.864 195.019 160.4 193.227 161.424 191.008C162.619 188.619 163.216 185.803 163.216 182.56V111.904H130.192V64.8H244.112V111.904H216.464V189.472C216.464 198.688 214.928 206.795 211.856 213.792C208.784 220.789 204.603 226.763 199.312 231.712C194.021 236.661 187.792 240.416 180.624 242.976C173.627 245.365 166.032 246.56 157.84 246.56Z" fill="black"/>
</mask>
<g mask="url(#mask0_1_2)">
<rect x="-69" y="-38" width="385" height="346" fill="url(#paint0_linear_1_2)"/>
</g>
</g>
<defs>
<linearGradient id="paint0_linear_1_2" x1="0.999999" y1="1.00001" x2="251" y2="250.5" gradientUnits="userSpaceOnUse">
<stop stop-color="#FF4B0A"/>
<stop offset="1" stop-color="#FC8559"/>
</linearGradient>
<clipPath id="clip0_1_2">
<rect width="250" height="250" fill="white"/>
</clipPath>
</defs>
</svg>
